<?xml version="1.0" encoding="UTF-8"?>
<svg version="1.1" xmlns="http://www.w3.org/2000/svg" width="1024" height="1024">
<path d="M0 0 C337.92 0 675.84 0 1024 0 C1024 337.92 1024 675.84 1024 1024 C686.08 1024 348.16 1024 0 1024 C0 686.08 0 348.16 0 0 Z " fill="#FEFBF5" transform="translate(0,0)"/>
<path d="M0 0 C0.64066406 0.45632812 1.28132812 0.91265625 1.94140625 1.3828125 C11.10316592 8.48264482 20.22140592 20.77053881 22.43359375 32.25 C22.74599603 37.24843646 21.14167443 40.24744443 18 44 C15.05881128 47.04623118 12.13775971 47.55319034 8.09765625 48.1796875 C5.02130942 47.91616431 3.43980829 46.88125123 1 45 C-0.7734375 42.14453125 -0.7734375 42.14453125 -2.375 38.8125 C-9.59925681 24.84456999 -20.45878121 17.60699538 -35 12 C-35.83015625 11.67902344 -36.6603125 11.35804688 -37.515625 11.02734375 C-55.35553984 5.41976818 -76.81607799 7.98956423 -93.5 15.875 C-98.35709955 18.4760697 -102.76155974 21.48458778 -107 25 C-104.56711765 26.95838402 -102.12934282 28.90192217 -99.640625 30.7890625 C-85.93044914 41.31811912 -74.50964697 55.67265203 -71 73 C-70.71983982 77.72680504 -71.31951967 80.89715257 -73.8125 84.9375 C-77.27712828 88.20414952 -80.12073387 89.31160822 -84.875 89.4375 C-86.10863281 89.49744141 -86.10863281 89.49744141 -87.3671875 89.55859375 C-91.1319828 88.75983154 -93.56094659 86.87748013 -96 84 C-97.32747501 81.48592629 -98.16315657 78.89853063 -99 76.1875 C-103.0447535 64.41357093 -109.81373632 56.05514138 -121 50.1875 C-131.61587491 45.29776368 -142.88539829 44.09768607 -154.1875 47.625 C-170.59608867 53.85196108 -181.84614167 63.61919713 -189.64453125 79.30859375 C-192.64045865 86.50054626 -193.8459287 93.22640256 -194 101 C-193.47092041 100.83991455 -192.94184082 100.6798291 -192.39672852 100.51489258 C-187.03410994 99.36283364 -181.39968458 99.7281211 -175.9375 99.6875 C-174.66455078 99.65849609 -173.39160156 99.62949219 -172.08007812 99.59960938 C-162.69863311 99.53697004 -153.99652285 100.5505135 -146.4375 106.5625 C-143.23366924 109.76633076 -141.70278239 111.80889936 -141.625 116.3125 C-141.7448193 120.91805417 -142.85177151 123.52037904 -146 127 C-150.12658214 129.69124922 -153.1167127 130.56345623 -158 130 C-159.46255342 129.51248219 -160.92041673 129.01080683 -162.375 128.5 C-175.9575128 124.25038148 -192.51019324 126.88742095 -205.0625 133.3125 C-215.58933055 139.97682428 -220.80884412 149.89610457 -223.62280273 161.90893555 C-226.35509791 177.05593112 -222.97161563 191.31582372 -214.90234375 204.28125 C-206.63244084 216.10024883 -195.03749129 222.38663726 -181 225 C-180.54109375 224.26394531 -180.0821875 223.52789062 -179.609375 222.76953125 C-178.99578125 221.79371094 -178.3821875 220.81789063 -177.75 219.8125 C-177.14671875 218.84957031 -176.5434375 217.88664063 -175.921875 216.89453125 C-170.12501563 208.16389549 -170.12501563 208.16389549 -165 206 C-160.2976859 205.2859449 -156.93624496 205.54921539 -152.625 207.625 C-148.65350911 211.21825366 -147.22498523 214.20011818 -146.5625 219.5 C-147.17849983 224.42799865 -149.53596134 227.18244957 -152.6015625 230.98828125 C-156.40348872 236.06051931 -157.9719858 239.95523069 -157.578125 246.35546875 C-156.21587267 252.58685274 -152.17969519 256.44843241 -147 259.875 C-140.57825191 263.70129157 -134.00210489 264.51054963 -126.6953125 265.10546875 C-125.68953156 265.19007858 -124.68375061 265.27468842 -123.64749146 265.36186218 C-116.26043206 265.9343723 -108.89980126 266.17588963 -101.4921875 266.23828125 C-100.45467346 266.24721405 -99.41715942 266.25614685 -98.34820557 266.26535034 C-94.11614109 266.29455705 -89.88451362 266.31471787 -85.65234375 266.30541992 C-67.14757423 266.28996181 -52.86872218 268.16336371 -39.10351562 281.89135742 C-33.95287772 287.38679513 -30.4492677 293.0851714 -27.125 299.8125 C-26.62323242 300.80064697 -26.12146484 301.78879395 -25.60449219 302.80688477 C-24.05599722 305.86460127 -22.52692243 308.93146378 -21 312 C-20.00344231 313.98219244 -19.00606881 315.96397496 -18.0078125 317.9453125 C-15.6560196 322.62244164 -13.32269666 327.30835829 -11 332 C-10.98541748 331.04746338 -10.97083496 330.09492676 -10.95581055 329.11352539 C-10.8973311 325.5404115 -10.82010727 321.96789553 -10.73754883 318.39526367 C-10.70453079 316.85630074 -10.67642878 315.31722344 -10.65356445 313.77807617 C-10.35672338 294.31919619 -10.35672338 294.31919619 -5.3515625 287.87890625 C-4.78179688 287.44449219 -4.21203125 287.01007813 -3.625 286.5625 C-3.06039062 286.11003906 -2.49578125 285.65757812 -1.9140625 285.19140625 C2.75943168 282.28239457 6.654212 281.7734765 12.125 281.625 C22.40191647 281.12653502 31.54869917 278.34463599 39 271 C48.05828028 260.5954432 51.89521897 250.60109049 51.31640625 236.86328125 C50.32976428 224.81650457 45.53808041 214.93652748 37.625 205.875 C34.94760678 202.64366336 33.43442284 200.49172535 33.25 196.25 C33.66134085 192.02440766 35.23256466 189.24185283 38 186 C42.05323029 183.29784648 45.24096448 183.35290223 50 184 C53.125 185.5625 53.125 185.5625 56 188 C56.52980469 188.42796875 57.05960938 188.8559375 57.60546875 189.296875 C67.39271856 197.98669863 73.69551614 211.56252055 77 224 C77 225.32 77 226.64 77 228 C90.16198328 225.18775268 90.16198328 225.18775268 102 219 C102.598125 218.61714844 103.19625 218.23429688 103.8125 217.83984375 C112.35923817 211.60148799 117.68378416 199.84068774 119.6015625 189.69140625 C120.80250493 178.56502784 121.64859482 166.42902142 117 156 C116.61714844 155.00226563 116.61714844 155.00226563 116.2265625 153.984375 C112.21696823 144.6409168 104.47648992 137.82931361 96.06640625 132.47265625 C94 131 94 131 92 128 C91.26018886 123.00197359 91.48196767 119.03606467 93.75 114.5 C97.09396182 110.78448687 98.64889295 110.16306464 103.625 109.5625 C113.75639313 109.93635215 121.8588821 117.36558595 128.53613281 124.35644531 C144.3290278 142.08789445 149.0653564 162.88579402 148.19970703 186.08447266 C146.76347939 207.05199161 135.81514613 225.73213714 120.25 239.41796875 C107.57752593 249.47843021 92.28421618 255.37056371 76 255 C75.938125 255.9075 75.87625 256.815 75.8125 257.75 C73.55956716 272.70947406 62.90076269 287.39063676 50.98046875 296.2421875 C40.78547857 303.36872573 30.38225469 307.32042593 18 309 C17.99786247 309.90629654 17.99786247 309.90629654 17.99568176 310.8309021 C17.97588993 317.15871723 17.92141432 323.48557999 17.84741211 329.81298828 C17.82431353 332.16968944 17.80985565 334.52649264 17.80444336 336.88330078 C17.79509457 340.2848205 17.75397163 343.68475316 17.70703125 347.0859375 C17.7109639 348.12801361 17.71489655 349.17008972 17.71894836 350.2437439 C17.56358094 358.15549457 15.83008824 365.23347101 10.02400208 370.94320679 C5.02362655 375.04249176 0.09730705 376.64936147 -6.3125 377.375 C-14.29899266 376.56281431 -19.9128262 373.91690317 -25.06787109 367.76123047 C-29.40987561 361.55601552 -32.51394515 354.60919936 -35.8125 347.8125 C-36.6133091 346.18849767 -37.41523654 344.56504635 -38.21826172 342.94213867 C-42.06105484 335.15233265 -45.80104683 327.32381086 -49.42163086 319.42797852 C-53.58124514 310.38721004 -57.48816781 302.67455479 -66 297 C-73.16229411 294.61256863 -80.75449314 294.83124675 -88.2265625 294.75390625 C-90.41536837 294.72095384 -92.60417036 294.68774244 -94.79296875 294.65429688 C-98.20228304 294.60710152 -101.6115832 294.56265529 -105.02099609 294.52319336 C-130.59721672 294.21336971 -154.85246898 293.10212341 -173.9375 273.78515625 C-175.67780717 271.43508236 -176.55719891 269.84464657 -177.5625 267.18359375 C-180.14353367 260.41636625 -182.15544256 255.53460085 -188.9375 252.21484375 C-193.68083161 250.2221099 -198.53137324 248.54722307 -203.40673828 246.90869141 C-221.84133794 240.44911883 -235.90581605 225.53630768 -244.26464844 208.20922852 C-252.46370952 190.35583494 -255.13238984 167.02868076 -248.3984375 148.1640625 C-244.13375798 138.51492727 -239.90277821 129.08950226 -233 121 C-232.58105469 120.46246094 -232.16210938 119.92492187 -231.73046875 119.37109375 C-229.61263275 116.68850149 -227.75245977 114.83652418 -224.8828125 112.94140625 C-222.88155788 111.29156606 -222.10049386 110.4156575 -221.48535156 107.87133789 C-221.32554535 105.27657591 -221.32458369 102.72411182 -221.375 100.125 C-221.00990711 77.90020909 -212.03977895 58.51925013 -196.8125 42.375 C-182.50950542 28.68324451 -162.23843759 17.86733685 -142.125 17.9375 C-138.15442163 17.73872868 -136.54424802 17.48367988 -133.54296875 14.81640625 C-132.03209023 12.90862444 -130.57050608 10.96093967 -129.15625 8.98046875 C-117.29623922 -7.41298818 -96.2946386 -15.32585426 -76.98364258 -18.62060547 C-48.92515672 -22.18847119 -22.75432255 -16.89920411 0 0 Z " fill="#2679CA" transform="translate(551,203)"/>
<path d="M0 0 C12.56117653 10.64881792 21.10080714 26.41261267 22.6171875 42.9609375 C22.66101563 43.71632813 22.70484375 44.47171875 22.75 45.25 C22.81445312 46.23226562 22.87890625 47.21453125 22.9453125 48.2265625 C23.58567665 66.79712275 18.13572276 85.20566741 5.75 99.25 C6.78060547 100.24580078 6.78060547 100.24580078 7.83203125 101.26171875 C8.73308594 102.14472656 9.63414062 103.02773438 10.5625 103.9375 C11.45582031 104.80761719 12.34914063 105.67773438 13.26953125 106.57421875 C16.13216374 109.66225538 18.50125187 112.26001494 19.03515625 116.53125 C18.59423445 120.92499704 18.1243143 122.82221223 15.125 126.25 C11.37909658 128.46979462 9.09810043 129.25 4.75 129.25 C-0.4380531 127.21031337 -3.52630309 124.27026076 -7.125 120.1875 C-7.62257813 119.64544922 -8.12015625 119.10339844 -8.6328125 118.54492188 C-12.25 114.52527258 -12.25 114.52527258 -12.25 112.25 C-13.17941406 112.52714844 -14.10882813 112.80429687 -15.06640625 113.08984375 C-16.30261719 113.45207031 -17.53882813 113.81429687 -18.8125 114.1875 C-20.03066406 114.54714844 -21.24882812 114.90679688 -22.50390625 115.27734375 C-38.92480351 119.54095524 -55.95242942 117.88012143 -70.91796875 109.71484375 C-86.19495324 100.11874797 -95.84726369 86.24022096 -100.11621094 68.73583984 C-104.063898 50.01290087 -101.20126927 30.63610444 -91.25 14.25 C-82.40439757 0.87527902 -69.16450285 -8.58193793 -53.484375 -12.31640625 C-34.10099409 -14.91490297 -15.84976171 -11.97806419 0 0 Z " fill="#14385B" transform="translate(210.25,662.75)"/>
<path d="M0 0 C4.7000202 2.91027741 8.81004527 6.4040601 10.296875 11.8984375 C11.28394567 20.02358765 10.59999817 25.96093616 6.296875 32.8984375 C3.92158732 35.80189614 1.30051194 38.4122827 -1.37402344 41.03930664 C-2.14204285 41.80951645 -2.91006226 42.57972626 -3.70135498 43.37327576 C-6.22889299 45.90311485 -8.77038603 48.41840871 -11.3125 50.93359375 C-13.08204039 52.69820574 -14.85076586 54.46363527 -16.61871338 56.22984314 C-20.79478394 60.3973097 -24.97998975 64.55542618 -29.16947389 68.70940441 C-33.44165121 72.94663922 -37.70210398 77.19553035 -41.96120834 81.44590092 C-46.49146726 85.96615371 -51.02663355 90.4814689 -55.5625 94.99609375 C-56.42095268 95.85115068 -57.27940536 96.70620762 -58.16387177 97.58717537 C-60.61148175 100.02312259 -63.06248999 102.45559543 -65.51464844 104.88696289 C-66.22766113 105.59728668 -66.94067383 106.30761047 -67.67529297 107.03945923 C-71.62306632 110.945591 -75.66234945 114.6866725 -79.88215733 118.29798412 C-83.10412195 121.12977748 -86.08587666 124.19853884 -89.08984375 127.2578125 C-90.45364458 128.63424485 -91.81758079 130.01054307 -93.18164062 131.38671875 C-95.29661512 133.5265869 -97.40993068 135.66804632 -99.52075195 137.81201172 C-101.58104392 139.90252162 -103.64752684 141.98675267 -105.71484375 144.0703125 C-106.34202805 144.71095642 -106.96921234 145.35160034 -107.61540222 146.01165771 C-113.55821163 151.98824539 -118.43075366 154.97961599 -126.953125 155.2109375 C-142.61205692 154.96205381 -154.07979136 138.64021638 -164.328125 128.2734375 C-173.95135188 118.48894204 -173.95135188 118.48894204 -184.11572266 109.27685547 C-186.26411562 107.4113023 -188.18656048 105.39662217 -190.078125 103.2734375 C-190.72523438 102.55929687 -191.37234375 101.84515625 -192.0390625 101.109375 C-196.43257997 95.27197855 -196.59228311 88.95670295 -195.703125 81.8984375 C-193.29231905 75.58688543 -188.56913004 71.20990156 -182.84765625 67.7890625 C-178.12157755 65.82631943 -172.44248179 66.15496908 -167.55859375 67.48046875 C-157.92442158 71.77758424 -150.6007165 80.94981535 -143.30859375 88.32421875 C-140.47259669 91.12620086 -137.52673801 93.74114207 -134.49609375 96.328125 C-131.76192867 98.72275324 -129.24052354 101.297604 -126.703125 103.8984375 C-122.45735082 102.25116487 -119.63085477 99.08533288 -116.50097656 95.9074707 C-115.88901428 95.29419418 -115.277052 94.68091766 -114.64654541 94.04905701 C-112.62431242 92.02033357 -110.60915005 89.98472841 -108.59375 87.94921875 C-107.18424729 86.53344176 -105.77422561 85.11818127 -104.3637085 83.70341492 C-100.64714952 79.97354729 -96.93618758 76.23816451 -93.22680664 72.50115967 C-87.30542741 66.53670372 -81.37745104 60.5788251 -75.44603729 54.62434959 C-73.38315397 52.5513166 -71.32376358 50.47486101 -69.26470947 48.39802551 C-57.92484543 36.9861471 -57.92484543 36.9861471 -52.15814209 32.15092468 C-50.1287495 30.40401173 -48.41789137 28.45003297 -46.703125 26.3984375 C-43.69039355 22.9253467 -40.55806932 19.94347986 -37.04296875 16.9921875 C-35.12152511 15.27283225 -33.31978128 13.52175457 -31.51953125 11.6796875 C-30.95258545 11.09993164 -30.38563965 10.52017578 -29.80151367 9.92285156 C-28.67653334 8.76456327 -27.55787823 7.60008822 -26.4465332 6.42871094 C-19.21492871 -1.00546261 -10.06927499 -4.10337507 0 0 Z " fill="#25A976" transform="translate(601.703125,278.1015625)"/>
<path d="M0 0 C2.74345328 -0.03129367 5.48693565 -0.05509399 8.23046875 -0.078125 C9.5445874 -0.09157959 10.85870605 -0.10503418 12.21264648 -0.11889648 C27.20557743 -0.1273932 38.12013075 2.21582885 50.85546875 10.234375 C57.63341934 17.6578447 60.31384005 25.41215324 60.05029297 35.30566406 C59.54353769 43.55285785 57.63528877 49.49425002 51.48046875 55.109375 C48.94258774 57.17140332 46.445643 58.73268695 43.48046875 60.109375 C44.19332031 60.4496875 44.90617188 60.79 45.640625 61.140625 C54.0990949 65.4210889 60.22680624 70.13200797 63.88720703 79.11303711 C64.99578602 82.84342823 64.96730131 86.55620636 64.91796875 90.421875 C64.90894531 91.26347168 64.89992188 92.10506836 64.890625 92.97216797 C64.60745156 103.13691467 61.67984682 109.78248424 54.59375 117.140625 C41.69941416 129.15309314 24.33315147 128.7345577 7.7434082 128.57592773 C4.39289824 128.54665597 1.0439458 128.55542086 -2.30664062 128.56835938 C-4.45183057 128.56212938 -6.59701558 128.55374424 -8.7421875 128.54296875 C-9.73597916 128.54590439 -10.72977081 128.54884003 -11.75367737 128.55186462 C-17.03396225 128.48001334 -21.08482271 128.29011118 -25.51953125 125.109375 C-30.13941174 119.80232147 -30.10263585 115.20566351 -30.06884766 108.34985352 C-30.07906952 107.27757507 -30.08929138 106.20529663 -30.099823 105.1005249 C-30.12757901 101.56288203 -30.12570465 98.02601994 -30.12109375 94.48828125 C-30.1288693 92.0249757 -30.13753898 89.56167282 -30.14706421 87.09837341 C-30.16198059 81.93780826 -30.16141184 76.77751679 -30.15087891 71.61694336 C-30.13928666 65.00793706 -30.17316046 58.40005123 -30.21956825 51.7912302 C-30.24904933 46.70478277 -30.25078564 41.61860506 -30.2445488 36.53208733 C-30.24557479 34.09564938 -30.25604242 31.65919626 -30.27617264 29.22284126 C-30.3008835 25.81391954 -30.28733399 22.40717853 -30.26416016 18.99829102 C-30.27944763 17.99495224 -30.29473511 16.99161346 -30.31048584 15.95787048 C-30.22096814 9.99205876 -29.25002632 6.70346216 -25.09844017 2.34593105 C-22.47601856 0.29212587 -20.37013029 0.20546512 -17.08203125 0.171875 C-16.10218262 0.15096802 -16.10218262 0.15096802 -15.10253906 0.12963867 C-13.53810341 0.10434478 -11.97331933 0.09733987 -10.40869141 0.10351562 C-6.93809932 0.11055418 -3.47018187 0.05334109 0 0 Z " fill="#14375B" transform="translate(507.51953125,650.890625)"/>
<path d="M0 0 C11.21887452 7.34029754 17.65126762 18.08052789 20.625 31.1875 C22.08999372 45.51115062 20.56042897 59.18423727 11.59765625 70.90625 C3.13974641 80.68727841 -7.36388378 86.99319002 -20.41430664 88.40869141 C-35.36598398 89.25018205 -46.69812072 85.94350062 -58.4609375 76.515625 C-67.73506441 68.20089053 -72.74202026 55.99897981 -73.62109375 43.76171875 C-74.11182004 29.20350557 -70.07993574 16.15765653 -60.0625 5.375 C-56.23626595 1.80831356 -52.09394213 -0.60168705 -47.375 -2.8125 C-46.58738281 -3.20695313 -45.79976562 -3.60140625 -44.98828125 -4.0078125 C-30.50093821 -10.35295815 -13.43633943 -7.52515707 0 0 Z " fill="#13375A" transform="translate(654.375,691.8125)"/>
<path d="M0 0 C1.36267834 0.98836993 2.71813783 1.9868575 4.0625 3 C4.92875 3.5775 5.795 4.155 6.6875 4.75 C15.77940075 13.36337966 20.53500561 24.48226275 21.30078125 36.84765625 C21.70067058 52.00937933 18.55318969 63.88334264 7.99609375 75.21875 C-2.58906045 85.36837907 -15.02973318 88.42412825 -29.3203125 88.18359375 C-41.34916696 87.57305794 -50.86846439 82.85956672 -59.609375 74.5859375 C-63.59167187 70.16264802 -66.37876713 65.35201625 -68.9375 60 C-69.2984375 59.24589844 -69.659375 58.49179687 -70.03125 57.71484375 C-73.90063207 47.55771581 -73.74713954 32.22161824 -69.90625 22.0859375 C-69.5865625 21.39757812 -69.266875 20.70921875 -68.9375 20 C-68.5971875 19.24976563 -68.256875 18.49953125 -67.90625 17.7265625 C-62.29107261 6.61002888 -54.07158787 -0.72749679 -42.625 -5.3125 C-28.3554258 -9.74348312 -12.55185087 -8.09399222 0 0 Z " fill="#14375A" transform="translate(755.9375,692)"/>
<path d="M0 0 C1.03769531 -0.02578125 2.07539063 -0.0515625 3.14453125 -0.078125 C6.63710798 0.29848148 8.42171061 1.10687523 11.1875 3.25 C13.1333384 6.34761461 13.44145887 8.75714609 13.45874023 12.38232422 C13.46892685 13.40373505 13.47911346 14.42514587 13.48960876 15.47750854 C13.49174881 16.5754776 13.49388885 17.67344666 13.49609375 18.8046875 C13.5212529 21.13411709 13.54665094 23.46354412 13.57226562 25.79296875 C13.6010111 29.46207011 13.62503134 33.13112686 13.64379883 36.80029297 C13.66546569 40.343659 13.70490634 43.88650246 13.74609375 47.4296875 C13.74620956 48.52360809 13.74632538 49.61752869 13.7464447 50.74459839 C13.83699283 57.72107696 14.42952891 62.49202891 19.5625 67.625 C26.00459426 70.51283536 33.09444225 70.28101925 39.75 68.0625 C43.05180503 65.60731164 45.34744189 62.93011621 47.1875 59.25 C47.28624378 57.5812703 47.32303736 55.90869727 47.3293457 54.23706055 C47.33638016 53.19225021 47.34341461 52.14743988 47.35066223 51.07096863 C47.35482651 49.93766617 47.35899078 48.80436371 47.36328125 47.63671875 C47.38647937 45.25064222 47.41059671 42.86457448 47.43554688 40.47851562 C47.47067933 36.70607627 47.50001259 32.93396007 47.51342773 29.16137695 C47.52888792 25.52775679 47.56908893 21.89508811 47.61328125 18.26171875 C47.61137283 17.13448898 47.60946442 16.00725922 47.60749817 14.84587097 C47.73001608 7.01329149 47.73001608 7.01329149 50.09838867 3.06176758 C53.470494 0.13733219 55.59411022 0.06519196 60 0 C61.03769531 -0.02578125 62.07539063 -0.0515625 63.14453125 -0.078125 C66.61332145 0.29591656 68.40860993 1.17431946 71.1875 3.25 C73.6089578 6.88218669 73.48331234 9.56451704 73.47802734 13.76318359 C73.48474457 14.52612228 73.49146179 15.28906097 73.49838257 16.07511902 C73.5173949 18.5996246 73.52128843 21.12386476 73.5234375 23.6484375 C73.52986343 25.40337229 73.53659164 27.158306 73.54360962 28.91323853 C73.55559064 32.59355147 73.55928962 36.27377049 73.55810547 39.95410156 C73.55790229 44.66758859 73.58519956 49.38047262 73.61964989 54.09381676 C73.64190018 57.71925618 73.64594358 61.3445501 73.64488602 64.97005081 C73.64724499 66.70757754 73.65608519 68.4451081 73.67155075 70.1825676 C73.69117248 72.61481541 73.68538845 75.045758 73.67333984 77.47802734 C73.68457886 78.19404617 73.69581787 78.910065 73.70739746 79.64778137 C73.64704924 84.4478557 72.58737643 86.87915059 69.1875 90.25 C66.39018195 91.64865903 63.99465441 91.49537267 60.875 91.5625 C59.74449219 91.59988281 58.61398437 91.63726563 57.44921875 91.67578125 C53.51874999 91.16270209 51.95196964 90.03941973 49.1875 87.25 C47.875 84 47.875 84 47.1875 81.25 C46.85878906 81.70890625 46.53007812 82.1678125 46.19140625 82.640625 C41.45949027 88.74466838 35.740856 91.75053972 28.1875 93.25 C16.77755884 94.2047413 6.904453 92.30118855 -2.09765625 84.9375 C-10.31498499 76.85119928 -12.13640852 66.17405956 -12.25498962 55.07168579 C-12.25205399 53.8234201 -12.24911835 52.57515442 -12.24609375 51.2890625 C-12.2513356 49.98093597 -12.25657745 48.67280945 -12.26197815 47.32504272 C-12.27084635 44.5767846 -12.26855364 41.82881817 -12.25854492 39.08056641 C-12.24698059 35.56316638 -12.26741012 32.04675927 -12.29646206 28.52948952 C-12.31920639 25.15762703 -12.31236141 21.7859999 -12.30859375 18.4140625 C-12.31982773 17.15365143 -12.33106171 15.89324036 -12.34263611 14.59463501 C-12.33325516 13.42596893 -12.32387421 12.25730286 -12.31420898 11.05322266 C-12.31404282 10.0263736 -12.31387665 8.99952454 -12.31370544 7.94155884 C-11.68240076 4.55134484 -10.45292851 3.39372567 -7.8125 1.25 C-5.13594199 -0.08827901 -2.98815948 0.04421444 0 0 Z " fill="#13375A" transform="translate(257.8125,686.75)"/>
<path d="M0 0 C1.93209068 -0.01879967 1.93209068 -0.01879967 3.9032135 -0.03797913 C5.30063899 -0.02571173 6.69805477 -0.01229185 8.09545898 0.00219727 C9.53604817 0.00136811 10.97663725 -0.00109306 12.41722107 -0.00511169 C15.43094484 -0.00796549 18.44392366 0.00669069 21.45751953 0.03417969 C25.31701637 0.06829397 29.17518438 0.06223098 33.03474522 0.04351711 C36.00741115 0.0329411 38.97976866 0.04188957 41.95240593 0.05690193 C43.37533591 0.06207783 44.79829817 0.0616091 46.22122383 0.05535698 C48.21002504 0.04989744 50.19884233 0.07314629 52.1875 0.09765625 C53.31825455 0.10385483 54.44900909 0.11005341 55.61402893 0.11643982 C59.16235006 0.74291569 60.32895473 1.83648338 62.52905273 4.63110352 C63.27905273 6.70922852 63.27905273 6.70922852 63.52905273 8.88110352 C63.63217773 9.58750977 63.73530273 10.29391602 63.84155273 11.02172852 C62.96646557 18.32870636 57.87010065 24.07366303 53.27905273 29.50610352 C52.10559563 30.92123594 50.93241731 32.3365996 49.75952148 33.75219727 C48.91719971 34.7612915 48.91719971 34.7612915 48.05786133 35.79077148 C46.20249089 38.02420847 44.39246112 40.29109899 42.59155273 42.56860352 C40.11875641 45.67680789 37.60790468 48.75012479 35.07202148 51.80688477 C34.4486792 52.5591333 33.82533691 53.31138184 33.18310547 54.08642578 C31.94168493 55.58252933 30.69782096 57.07660979 29.45117188 58.56835938 C28.87359131 59.26453369 28.29601074 59.96070801 27.70092773 60.67797852 C27.18626953 61.29511719 26.67161133 61.91225586 26.14135742 62.5480957 C24.12611357 65.15167846 22.33145409 67.87719055 20.52905273 70.63110352 C21.68429443 70.60491943 22.83953613 70.57873535 24.02978516 70.55175781 C28.32532299 70.46110004 32.62077668 70.40379801 36.91699219 70.35644531 C38.77455883 70.33133649 40.63202701 70.29724218 42.48925781 70.25390625 C45.16292631 70.19309228 47.83528639 70.16485831 50.50952148 70.14282227 C51.75042793 70.10411263 51.75042793 70.10411263 53.0164032 70.06462097 C57.35675546 70.06252065 59.01423228 70.22927925 62.5534668 72.99169922 C65.40478909 76.80109681 65.17202637 79.42506241 64.95483398 84.02954102 C64.37719051 87.55899567 63.26904853 89.34777369 60.52905273 91.63110352 C57.18990259 92.78197804 53.97343342 92.76998956 50.46289062 92.79223633 C49.23804459 92.80184387 48.01319855 92.81145142 46.75123596 92.8213501 C45.43139206 92.82559998 44.11154816 92.82984985 42.75170898 92.83422852 C41.37934875 92.83998452 40.00698852 92.8457422 38.6346283 92.85150146 C35.76064684 92.86199086 32.8866932 92.86784738 30.01269531 92.87133789 C26.33625152 92.87682649 22.66017734 92.90087054 18.98384953 92.92930984 C16.15021193 92.94796116 13.31666308 92.95314308 10.48296928 92.95467377 C8.47054124 92.95915869 6.45816076 92.97778918 4.44581604 92.99664307 C2.60381874 92.99214142 2.60381874 92.99214142 0.72460938 92.98754883 C-0.35364609 92.99119446 -1.43190155 92.99484009 -2.54283142 92.99859619 C-5.91155083 92.57580564 -7.75904901 91.64548548 -10.47094727 89.63110352 C-13.09110371 85.56534351 -14.31823109 82.43237851 -13.47094727 77.63110352 C-10.32091166 71.33103231 -5.41600421 66.08206573 -0.8503418 60.77905273 C2.54034697 56.83631213 5.78381678 52.80550045 8.96655273 48.69360352 C13.29188472 43.11179855 17.80217059 37.72295212 22.47021484 32.42431641 C22.94209229 31.88411865 23.41396973 31.3439209 23.90014648 30.78735352 C24.51780884 30.08835937 24.51780884 30.08835937 25.14794922 29.37524414 C27.10659087 26.9017536 28.80132813 24.26899132 30.52905273 21.63110352 C29.42916016 21.64681396 28.32926758 21.66252441 27.19604492 21.67871094 C23.11099587 21.73305655 19.02597871 21.76747036 14.94067383 21.79589844 C13.17336654 21.81097453 11.4060966 21.83143873 9.63891602 21.85742188 C7.09699278 21.89385754 4.55556467 21.91084145 2.01342773 21.92407227 C1.22474304 21.93955612 0.43605835 21.95503998 -0.37652588 21.97099304 C-3.64373396 21.97199285 -6.03347946 21.86701933 -8.9387207 20.30029297 C-11.54899834 17.45668745 -11.69947243 14.46304364 -11.84594727 10.75610352 C-11.89493164 9.91305664 -11.94391602 9.07000977 -11.99438477 8.20141602 C-10.69536951 1.82266945 -5.94012817 0.00504881 0 0 Z " fill="#13375A" transform="translate(398.470947265625,686.368896484375)"/>
<path d="M0 0 C2.69990662 1.79993774 4.5418865 3.083773 6 6 C6.09394213 7.90389386 6.18303275 9.80824232 6.23925781 11.71362305 C6.54206485 21.16624944 7.94794908 28.24239121 13.125 36.3125 C20.41516565 43.12722007 28.29620194 44.96790974 38 45.1875 C45.70176292 45.71225324 45.70176292 45.71225324 48.375 48.625 C50.26477069 52.54990835 50.70343294 54.70124316 50 59 C47.86320715 62.38939556 46.8225233 63.72582557 43 65 C40.9602076 65.15256065 38.91797355 65.27357578 36.875 65.375 C28.24390512 66.00794696 20.37770859 67.79680582 14 74 C8.69790148 81.01909934 7.77674063 87.02357073 7.5703125 95.6640625 C7.33006965 101.38985042 6.15324144 104.84675856 2 109 C0.01171875 109.37109375 0.01171875 109.37109375 -2.3125 109.4375 C-3.07175781 109.47746094 -3.83101562 109.51742187 -4.61328125 109.55859375 C-8.28905909 108.69830532 -9.7295712 106.9574803 -12 104 C-12.6015625 100.546875 -12.6015625 100.546875 -12.625 96.75 C-12.88363565 87.99896171 -14.12167333 81.68913035 -20 75 C-20 74.34 -20 73.68 -20 73 C-20.57878906 72.71253906 -21.15757812 72.42507812 -21.75390625 72.12890625 C-23.16397662 71.42019262 -24.56860674 70.70043581 -25.96484375 69.96484375 C-26.61582031 69.62582031 -27.26679687 69.28679687 -27.9375 68.9375 C-28.91009766 68.42509766 -28.91009766 68.42509766 -29.90234375 67.90234375 C-34.48977159 65.92898093 -39.00024166 65.90010123 -43.9375 65.75 C-51.74316181 65.19303777 -51.74316181 65.19303777 -54.875 63 C-57.35579495 59.49770125 -57.67708056 57.47274789 -57.69921875 53.28125 C-56.62329049 49.77095891 -54.8746923 48.23243264 -52 46 C-48.6171875 45.43359375 -48.6171875 45.43359375 -44.875 45.4375 C-35.60158732 45.17776278 -27.34136818 43.22504843 -20.43359375 36.71484375 C-16.4909616 31.99872518 -13.90150392 26.10315602 -13.859375 19.9453125 C-13.84003906 19.16542969 -13.82070313 18.38554687 -13.80078125 17.58203125 C-13.76709364 15.95206909 -13.74871062 14.3217144 -13.74609375 12.69140625 C-13.60893325 8.3094891 -13.41924925 6.52068052 -10.578125 2.9921875 C-6.81045711 0.08080777 -4.77805385 -0.46843665 0 0 Z " fill="#FEB82D" transform="translate(646,182)"/>
<path d="M0 0 C4.17611018 2.78970923 7.41986851 6.15223703 9.6875 10.6875 C10.11773798 14.55964182 10.00419086 16.21246371 7.8125 19.5 C5.22322707 22.16542802 4.30666421 22.59904797 0.625 23.125 C-4.13979169 22.5955787 -6.51059358 20.89765108 -10.296875 18.09765625 C-14.13264867 15.41410141 -17.68838589 15.46594509 -22.25 15.375 C-24.08884766 15.31892578 -24.08884766 15.31892578 -25.96484375 15.26171875 C-29.35885399 15.41328963 -29.35885399 15.41328963 -31.71484375 17.48828125 C-33.58113289 19.72091716 -33.58113289 19.72091716 -33.9375 23.1875 C-33.6674147 26.82691506 -33.6674147 26.82691506 -30.8828125 28.78125 C-26.74684402 31.32382346 -22.28859549 31.91127783 -17.5625 32.6875 C3.7113461 36.58328028 3.7113461 36.58328028 9.90234375 45.421875 C13.85802043 52.00997708 14.4066234 58.12643115 13.6875 65.6875 C11.66853783 73.27685176 6.90424369 79.93684269 0.328125 84.2265625 C-11.81567634 90.67559986 -26.04266757 91.77851381 -39.25 88.0625 C-46.28585331 85.58336558 -51.95211902 82.39330259 -56.875 76.75 C-58.64666992 72.97557277 -58.97534543 70.81187159 -58.3125 66.6875 C-56.51027327 63.72147372 -54.46651327 61.26450664 -51.3125 59.6875 C-48.18127498 59.16562916 -46.12480512 59.15715203 -43.421875 60.921875 C-42.07015489 61.99686501 -40.71995305 63.07376627 -39.37109375 64.15234375 C-33.03608268 68.87655504 -26.03514466 69.57107153 -18.3125 68.6875 C-15.40278438 67.84373361 -12.50250775 66.87750775 -10.3125 64.6875 C-9.81179679 61.31392666 -9.81179679 61.31392666 -10.3125 57.6875 C-14.02365031 53.82818589 -17.68562285 52.90908331 -22.8125 52.1875 C-46.53695311 48.23251592 -46.53695311 48.23251592 -53.90625 38.60546875 C-58.20382603 31.40702891 -58.39428903 23.85808546 -57.3125 15.6875 C-55.24370536 8.75202546 -51.42161403 3.56186854 -45.3125 -0.3125 C-31.35182404 -7.65898092 -13.79711999 -7.90592828 0 0 Z " fill="#13375A" transform="translate(842.3125,690.3125)"/>
<path d="M0 0 C7.82317806 6.39932766 12.8219474 16.30244355 14.05517578 26.2902832 C14.185455 29.32856302 14.18529918 32.33475443 14.125 35.375 C14.13208984 36.38626953 14.13917969 37.39753906 14.14648438 38.43945312 C14.06851248 47.75409613 12.39755787 55.8303552 6.6875 63.3125 C3.38727 60.98292588 1.06088861 58.58066964 -1.25 55.3125 C-4.55994826 50.77507732 -7.68497391 47.79510683 -13.375 46.75 C-17.53901122 47.54736385 -18.90179772 48.83825259 -21.3125 52.3125 C-22.29290487 55.552381 -22.21216808 58.05370228 -21.3125 61.3125 C-19.45530897 64.38590462 -17.4157105 67.13709653 -15.16015625 69.9296875 C-13.3125 72.3125 -13.3125 72.3125 -12.3125 75.3125 C-19.6001304 77.74171013 -28.67552385 77.04078004 -35.8984375 74.546875 C-45.23421432 69.77324154 -51.77097528 61.3947509 -55.125 51.625 C-58.34914829 38.24385278 -58.08164339 22.4969581 -51.3125 10.3125 C-38.86949853 -7.24017508 -18.34013394 -12.49356373 0 0 Z " fill="#FCF8F3" transform="translate(192.3125,679.6875)"/>
<path d="M0 0 C4.04823401 2.06091913 6.45321322 3.72317019 8 8 C8.13958857 10.62426505 8.18931369 13.13292747 8.125 15.75 C8.11597656 16.44738281 8.10695313 17.14476562 8.09765625 17.86328125 C8.07419888 19.57566958 8.03833104 21.28788004 8 23 C9.51980469 22.93039062 9.51980469 22.93039062 11.0703125 22.859375 C12.42184532 22.82183242 13.77341028 22.78543494 15.125 22.75 C15.79015625 22.71648438 16.4553125 22.68296875 17.140625 22.6484375 C22.26914595 22.54787827 25.0675566 23.77276681 29 27 C30.20256511 29.40513021 30.2703777 31.12853564 30.375 33.8125 C30.42398438 34.66457031 30.47296875 35.51664063 30.5234375 36.39453125 C29.73195112 40.33424332 28.24352242 41.67195453 25 44 C21.86606972 44.58588017 18.8614126 44.47532898 15.6875 44.3125 C14.85154297 44.28994141 14.01558594 44.26738281 13.15429688 44.24414062 C11.10208851 44.1855061 9.05080798 44.09583215 7 44 C7.11946813 48.51674032 7.24377704 53.0333155 7.37231445 57.54980469 C7.41526857 59.0819957 7.45696577 60.61422254 7.49731445 62.14648438 C6.97529182 76.6537446 6.97529182 76.6537446 10.8125 90.0625 C14.96481332 92.58645515 18.36432623 92.56035855 23.16015625 92.56640625 C26 93 26 93 28.33203125 94.65625 C30.99537046 98.39864701 30.66343629 101.6767898 30.52734375 106.140625 C29.96707265 109.17853939 29.50552144 110.22209529 27.1875 112.1875 C19.96458112 116.29464995 11.62351437 115.98349901 3.62109375 114.28125 C-5.64479597 111.40522916 -10.41596696 107.77989341 -15.01953125 99.18359375 C-16.70587239 95.42795751 -17.12410029 92.15091286 -17.11352539 88.04785156 C-17.11344986 87.06713684 -17.11337433 86.08642212 -17.11329651 85.07598877 C-17.10813522 84.02481873 -17.10297394 82.97364868 -17.09765625 81.890625 C-17.0962413 80.80867859 -17.09482635 79.72673218 -17.09336853 78.61199951 C-17.08777318 75.1579715 -17.0752215 71.70400841 -17.0625 68.25 C-17.0574844 65.90755302 -17.0529216 63.56510502 -17.04882812 61.22265625 C-17.03780528 55.4817487 -17.02107174 49.74087899 -17 44 C-17.82927002 44.02755371 -18.65854004 44.05510742 -19.51293945 44.08349609 C-21.14042114 44.11564209 -21.14042114 44.11564209 -22.80078125 44.1484375 C-23.87755127 44.17599121 -24.95432129 44.20354492 -26.0637207 44.23193359 C-29 44 -29 44 -32.1875 41.625 C-35.06197104 37.46197298 -35.42606903 35.11282833 -35 30 C-31.92307692 24.46153846 -31.92307692 24.46153846 -29 23 C-26.95944995 22.92934383 -24.91665743 22.91578024 -22.875 22.9375 C-21.77929688 22.94652344 -20.68359375 22.95554687 -19.5546875 22.96484375 C-18.71164062 22.97644531 -17.86859375 22.98804688 -17 23 C-17.05800781 21.91460938 -17.11601563 20.82921875 -17.17578125 19.7109375 C-17.22270558 18.26566824 -17.26820287 16.82035216 -17.3125 15.375 C-17.35439453 14.66214844 -17.39628906 13.94929687 -17.43945312 13.21484375 C-17.53141075 9.20549121 -17.21181033 6.73054878 -14.66796875 3.5390625 C-10.32932448 -0.58995475 -5.74050795 -0.71511447 0 0 Z " fill="#13365A" transform="translate(895,664)"/>
<path d="M0 0 C3.74030185 1.60298651 4.73158465 2.59737698 7 6 C7.31174512 8.9637501 7.50319372 11.83983101 7.60546875 14.8125 C7.66084053 16.18619751 7.66084053 16.18619751 7.71733093 17.58764648 C8.1504696 29.41713262 8.25858772 41.25340684 8.29516602 53.08984375 C8.30684923 55.72531431 8.32754749 58.36075842 8.35668945 60.99609375 C8.39910326 64.8517218 8.4154777 68.70666865 8.42578125 72.5625 C8.44328934 73.73949463 8.46079742 74.91648926 8.47883606 76.12915039 C8.45716157 84.22712754 8.45716157 84.22712754 6.09838867 88.21484375 C2.59062775 91.19899126 0.24751984 91.21437953 -4.3125 91.3125 C-5.44300781 91.34988281 -6.57351563 91.38726563 -7.73828125 91.42578125 C-11.64304057 90.91605818 -13.22148129 89.72790817 -16 87 C-17.51284231 83.97431537 -17.18232114 80.82968474 -17.20874023 77.50854492 C-17.21852402 76.73599869 -17.2283078 75.96345245 -17.23838806 75.16749573 C-17.26835714 72.60517099 -17.28973109 70.04289847 -17.30859375 67.48046875 C-17.31516558 66.60593866 -17.3217374 65.73140858 -17.32850838 64.83037758 C-17.36110807 60.2016321 -17.38555783 55.57290972 -17.4050293 50.9440918 C-17.42284898 47.11139489 -17.45767801 43.27943283 -17.50756836 39.44702148 C-17.56771467 34.82160109 -17.59849714 30.19686257 -17.60820198 25.57106972 C-17.6167672 23.80836367 -17.63561174 22.04567635 -17.6649456 20.28319359 C-17.70382148 17.81453257 -17.70490126 15.34853263 -17.69702148 12.87963867 C-17.71702209 12.15269806 -17.73702271 11.42575745 -17.75762939 10.67678833 C-17.7173195 7.86093783 -17.53029654 5.65133074 -15.71649361 3.42354774 C-10.67999494 -0.96077483 -6.34177344 -0.89906239 0 0 Z " fill="#14375A" transform="translate(365,687)"/>
<path d="M0 0 C5.88564546 3.05277435 10.01107931 8.70148184 12.0859375 14.90234375 C14.00850865 24.03828263 13.31340514 34.32789326 8.30078125 42.36328125 C5.15238189 46.39558952 1.70984813 49.31191749 -3.41015625 50.296875 C-12.30986663 51.03419056 -18.87274069 50.97002093 -26.03515625 45.171875 C-32.99005149 36.75279129 -33.4938593 27.94877049 -32.671875 17.36572266 C-31.82697028 10.68687699 -28.70696384 5.91984338 -23.59765625 1.671875 C-16.8646738 -2.31133478 -7.39729707 -2.15804453 0 0 Z " fill="#FCF8F3" transform="translate(740.41015625,707.703125)"/>
<path d="M0 0 C5.4160024 4.98518403 8.24791819 11.61307411 8.9375 18.890625 C9.2493034 27.21837412 7.51809688 35.49692469 2.203125 42.109375 C-2.64321508 46.9174545 -7.55770526 47.87127489 -14.28125 48.14453125 C-22.1121602 47.90977163 -26.18154799 45.68173326 -31.59375 40.26953125 C-37.02824271 31.61459842 -37.41851463 22.57555119 -36.28125 12.58203125 C-34.53422084 6.08233136 -30.19814369 1.62385683 -24.78125 -2.16796875 C-16.92982689 -6.0936803 -7.08430295 -5.03740394 0 0 Z " fill="#FBF7F3" transform="translate(642.28125,710.41796875)"/>
<path d="M0 0 C7.1775 -0.0928125 7.1775 -0.0928125 14.5 -0.1875 C16.74006836 -0.22846802 16.74006836 -0.22846802 19.02539062 -0.27026367 C26.03719815 -0.31411104 31.71364448 -0.2550209 38 3 C42.5785212 7.81331716 43.29854223 11.00685433 43.21484375 17.4609375 C42.81597714 22.17481563 41.03559737 24.96440263 37.75 28.25 C30.23377306 33.03305351 22.18353037 32.23727758 13.5625 32.125 C9.086875 32.08375 4.61125 32.0425 0 32 C0 21.44 0 10.88 0 0 Z " fill="#FBF8F3" transform="translate(503,725)"/>
<path d="M0 0 C6.991875 -0.0928125 6.991875 -0.0928125 14.125 -0.1875 C15.58437988 -0.21481201 17.04375977 -0.24212402 18.54736328 -0.27026367 C19.70993652 -0.27775635 20.87250977 -0.28524902 22.0703125 -0.29296875 C23.25383301 -0.3086792 24.43735352 -0.32438965 25.65673828 -0.34057617 C30.75360518 0.17863876 33.95404904 1.84394894 37.375 5.625 C39.85226827 10.77009564 39.62411343 15.25390092 38.375 20.75 C36.20368806 24.30305591 33.18226755 27.23147515 29.19824219 28.63452148 C26.34051268 29.10964599 23.60029202 29.11132213 20.703125 29.09765625 C19.61676758 29.09515869 18.53041016 29.09266113 17.41113281 29.09008789 C16.03795898 29.08098389 14.66478516 29.07187988 13.25 29.0625 C6.69125 29.0315625 6.69125 29.0315625 0 29 C0 19.43 0 9.86 0 0 Z " fill="#FCF9F4" transform="translate(503,674)"/>
<path d="M0 0 C3.62011046 2.33296007 5.89022378 4.96794755 7.8125 8.8125 C8.18631854 14.41977817 7.99740827 17.98022538 4.8125 22.8125 C1.07324697 26.41326217 -1.38347944 27.40059487 -6.5625 27.4375 C-12.14763269 27.2855236 -15.12554777 26.30667877 -19.015625 22.3203125 C-21.83553568 18.69202742 -21.6366707 15.10717938 -21.6015625 10.6484375 C-20.93818921 6.10495626 -18.70813073 3.61223967 -15.1875 0.8125 C-10.2913644 -2.07496459 -5.25789795 -1.95882473 0 0 Z " fill="#14375A" transform="translate(367.1875,649.1875)"/>
<path d="M0 0 C0.91007812 0.00902344 1.82015625 0.01804687 2.7578125 0.02734375 C3.45648438 0.03894531 4.15515625 0.05054688 4.875 0.0625 C4.875 0.3925 4.875 0.7225 4.875 1.0625 C4.19953125 1.25585938 3.5240625 1.44921875 2.828125 1.6484375 C1.49007813 2.03902344 1.49007813 2.03902344 0.125 2.4375 C-0.75671875 2.69273437 -1.6384375 2.94796875 -2.546875 3.2109375 C-4.89089562 3.98517461 -6.93671553 4.93581822 -9.125 6.0625 C-9.12055878 6.66305206 -9.11611755 7.26360413 -9.11154175 7.88235474 C-9.06722593 14.14420182 -9.03709928 20.4060042 -9.01513672 26.66796875 C-9.00509169 29.00359914 -8.99145323 31.339217 -8.97412109 33.67480469 C-8.94980723 37.03583881 -8.93850173 40.39670634 -8.9296875 43.7578125 C-8.91936493 44.79865997 -8.90904236 45.83950745 -8.89840698 46.91189575 C-8.8976181 52.03266379 -9.0620614 56.27277059 -11.125 61.0625 C-12.38232786 58.54784428 -12.23437284 56.86283836 -12.21020508 54.04956055 C-12.20301956 53.00475021 -12.19583405 51.95993988 -12.18843079 50.88346863 C-12.17394394 49.75016617 -12.15945709 48.61686371 -12.14453125 47.44921875 C-12.13040695 46.28751663 -12.11628265 45.12581451 -12.10173035 43.9289093 C-12.06856796 41.46664116 -12.03220573 39.00441438 -11.99291992 36.54223633 C-11.9378826 32.77618001 -11.90921108 29.01047917 -11.88085938 25.24414062 C-11.84539166 22.85414174 -11.80833429 20.46416581 -11.76953125 18.07421875 C-11.76298271 16.3833741 -11.76298271 16.3833741 -11.75630188 14.65837097 C-11.58591031 6.82974381 -11.58591031 6.82974381 -9.2097168 2.87426758 C-5.98560367 0.07228333 -4.19139006 -0.05373577 0 0 Z " fill="#092449" transform="translate(317.125,686.9375)"/>
<path d="M0 0 C0.66 0.33 1.32 0.66 2 1 C-2 5 -6 9 -10 13 C-10.59167969 13.61488281 -11.18335938 14.22976563 -11.79296875 14.86328125 C-12.73076172 15.82814453 -12.73076172 15.82814453 -13.6875 16.8125 C-14.26886719 17.41707031 -14.85023438 18.02164062 -15.44921875 18.64453125 C-17 20 -17 20 -19 20 C-19.38091797 20.88945312 -19.38091797 20.88945312 -19.76953125 21.796875 C-21.13626374 24.24397699 -22.51742982 25.49347954 -24.6875 27.25 C-28.34814016 30.33720654 -31.46768828 33.64663567 -34.5546875 37.30078125 C-36 39 -36 39 -38 41 C-38.99 40.67 -39.98 40.34 -41 40 C-36.45039225 35.42485803 -31.89672678 30.85378313 -27.34033203 26.28540039 C-25.79351499 24.73358112 -24.24759993 23.18086219 -22.70263672 21.62719727 C-20.47084213 19.3831559 -18.23573155 17.14246196 -16 14.90234375 C-15.31945557 14.21663803 -14.63891113 13.53093231 -13.93774414 12.82444763 C-9.45843954 8.34463047 -4.81869486 4.11228068 0 0 Z " fill="#EEF5EF" transform="translate(534,384)"/>
<path d="M0 0 C4.95 0.33 9.9 0.66 15 1 C15 1.33 15 1.66 15 2 C10.71 2 6.42 2 2 2 C2 14.54 2 27.08 2 40 C1.67 40 1.34 40 1 40 C0.17852762 35.00010408 -0.1358223 30.16822982 -0.09765625 25.09765625 C-0.0962413 24.3750914 -0.09482635 23.65252655 -0.09336853 22.9080658 C-0.08782225 20.62616635 -0.0752802 18.34436921 -0.0625 16.0625 C-0.05747804 14.50455872 -0.05291636 12.94661588 -0.04882812 11.38867188 C-0.03872623 7.59237789 -0.01914102 3.79630191 0 0 Z " fill="#D6DCE0" transform="translate(902,708)"/>
<path d="M0 0 C8.82467528 4.41233764 15.76286394 13.24696893 20 22 C19.505 23.485 19.505 23.485 19 25 C18.59910156 24.32195312 18.19820312 23.64390625 17.78515625 22.9453125 C10.1526841 9.94959286 10.1526841 9.94959286 -2 2 C-5.04253508 1.41654524 -5.04253508 1.41654524 -8 2 C-10.26877535 4.41880929 -10.26877535 4.41880929 -12 7 C-12.66 7 -13.32 7 -14 7 C-14.33 7.66 -14.66 8.32 -15 9 C-14.72608098 5.7129718 -14.18168017 4.21006769 -12 1.6875 C-7.89543671 -0.62131685 -4.6092824 -0.79413924 0 0 Z " fill="#166AC5" transform="translate(601,387)"/>
<path d="M0 0 C3.89187528 1.57578491 6.4598617 4.23500955 9.32421875 7.19921875 C9.82991898 7.71249222 10.3356192 8.22576569 10.85664368 8.7545929 C13.00778051 10.93816631 15.14706496 13.13320554 17.28686523 15.32788086 C23.01509292 21.19012279 28.64360909 26.83544045 35.26879883 31.70629883 C37 33 37 33 39 35 C34.43790103 34.50394289 32.36414674 32.93541098 29.0625 29.8125 C28.57813477 29.35633301 28.09376953 28.90016602 27.59472656 28.43017578 C21.72273825 22.84005692 15.99527469 17.09497879 10.25 11.375 C9.744617 10.87247711 9.23923401 10.36995422 8.71853638 9.85220337 C7.27288394 8.41230244 5.83165965 6.96795983 4.390625 5.5234375 C3.54532227 4.67700684 2.70001953 3.83057617 1.82910156 2.95849609 C0 1 0 1 0 0 Z " fill="#1CA16B" transform="translate(428,396)"/>
<path d="M0 0 C0.66 0.66 1.32 1.32 2 2 C1.34 2 0.68 2 0 2 C0.12375 2.680625 0.2475 3.36125 0.375 4.0625 C-0.18007971 8.41062437 -2.70636395 11.18983347 -6 14 C-8.203125 14.703125 -8.203125 14.703125 -10 15 C-9.61328125 14.50371094 -9.2265625 14.00742187 -8.828125 13.49609375 C-5.49729049 9.15116853 -2.60742538 4.81370839 0 0 Z M-12 15 C-10 16 -10 16 -10 16 Z " fill="#F4F4F3" transform="translate(855,758)"/>
<path d="M0 0 C0 5.61 0 11.22 0 17 C-0.99 16.67 -1.98 16.34 -3 16 C-3 11.05 -3 6.1 -3 1 C-1 0 -1 0 0 0 Z " fill="#1F4162" transform="translate(584,723)"/>
<path d="M0 0 C0 3 0 3 0 3 Z M-3 4 C-2.34 4.66 -1.68 5.32 -1 6 C-6.14285714 12.57142857 -6.14285714 12.57142857 -10 14 C-8.33248852 10.05860922 -5.77289351 7.2107188 -3 4 Z " fill="#EDEFEF" transform="translate(431,740)"/>
<path d="M0 0 C0 4.13781054 -1.71509607 5.20919996 -4.5 8.1875 C-5.3353125 9.08855469 -6.170625 9.98960937 -7.03125 10.91796875 C-7.6809375 11.60503906 -8.330625 12.29210937 -9 13 C-9.33 12.01 -9.66 11.02 -10 10 C-6.7 6.7 -3.4 3.4 0 0 Z " fill="#E2F1E8" transform="translate(518,399)"/>
<path d="M0 0 C0 3.38878512 -0.64361198 4.39757217 -2.4375 7.1875 C-2.88996094 7.90292969 -3.34242188 8.61835937 -3.80859375 9.35546875 C-4.20175781 9.89816406 -4.59492188 10.44085937 -5 11 C-5.33 11 -5.66 11 -6 11 C-6.33 12.65 -6.66 14.3 -7 16 C-7.33 16 -7.66 16 -8 16 C-8.4745528 13.21200231 -8.66621615 11.70405378 -8 9 C-5.62234137 5.70464856 -2.89241237 2.84721842 0 0 Z " fill="#F4F4F2" transform="translate(391,753)"/>
<path d="M0 0 C0 0.99 0 1.98 0 3 C-2.97 3 -5.94 3 -9 3 C-9.33 2.34 -9.66 1.68 -10 1 C-6.52674819 -0.1577506 -3.63932552 -0.06866652 0 0 Z " fill="#264060" transform="translate(364,648)"/>
<path d="M0 0 C0 0.99 0 1.98 0 3 C-4.29 3 -8.58 3 -13 3 C-8.86989815 0.24659877 -4.98494908 0 0 0 Z " fill="#D9DFE3" transform="translate(878,684)"/>
<path d="M0 0 C3.3 0 6.6 0 10 0 C9.67 0.99 9.34 1.98 9 3 C6.03 3 3.06 3 0 3 C0 2.01 0 1.02 0 0 Z " fill="#1B3E5F" transform="translate(902,776)"/>
<path d="M0 0 C4.84590538 0.44053685 8.48141867 2.74505877 12 6 C12 6.66 12 7.32 12 8 C9.14940657 6.61964507 6.44119096 5.10703513 3.75 3.4375 C3.04359375 3.00308594 2.3371875 2.56867187 1.609375 2.12109375 C1.07828125 1.75113281 0.5471875 1.38117187 0 1 C0 0.67 0 0.34 0 0 Z " fill="#F2F3F3" transform="translate(827,706)"/>
<path d="M0 0 C0.66 0.33 1.32 0.66 2 1 C1.01 1 0.02 1 -1 1 C-0.67 0.67 -0.34 0.34 0 0 Z M-3 2 C-2.34 2 -1.68 2 -1 2 C-1 2.66 -1 3.32 -1 4 C-1.99 3.67 -2.98 3.34 -4 3 C-3.67 2.67 -3.34 2.34 -3 2 Z M-6 4 C-5.34 4.33 -4.68 4.66 -4 5 C-4.99 6.32 -5.98 7.64 -7 9 C-7.66 8.67 -8.32 8.34 -9 8 C-8.01 6.68 -7.02 5.36 -6 4 Z " fill="#FCF6E8" transform="translate(667,250)"/>
<path d="M0 0 C0 3.19219704 -0.23605791 4.39608549 -2 7 C-4.625 8.25 -4.625 8.25 -7 9 C-6.02180976 7.68677212 -5.0424189 6.37443848 -4.0625 5.0625 C-3.51722656 4.33160156 -2.97195313 3.60070312 -2.41015625 2.84765625 C-1 1 -1 1 0 0 Z " fill="#1268C6" transform="translate(663,412)"/>
<path d="M0 0 C0.66 0.33 1.32 0.66 2 1 C-0.65654657 4.73884332 -2.58110387 6.64978174 -7 8 C-6.02133662 6.85373678 -5.04205413 5.70800212 -4.0625 4.5625 C-3.51722656 3.92441406 -2.97195313 3.28632813 -2.41015625 2.62890625 C-1.63204305 1.73008851 -0.84063472 0.84063472 0 0 Z " fill="#1DA36E" transform="translate(510,349)"/>
</svg>
